<svg version="1.1" id="Layer_1" xmlns="http://www.w3.org/2000/svg" xmlns:xlink="http://www.w3.org/1999/xlink" x="0px" y="0px"
	 width="100%" viewBox="0 0 128 54" enable-background="new 0 0 128 54" xml:space="preserve">
<path fill="#FDFEFD" opacity="1.000000" stroke="none" 
	d="
M84.000000,55.000000 
	C56.000004,55.000000 28.500010,55.000000 1.000011,55.000000 
	C1.000007,37.000008 1.000007,19.000017 1.000004,1.000018 
	C43.666653,1.000012 86.333305,1.000012 128.999969,1.000006 
	C128.999969,18.999981 128.999969,36.999962 128.999985,54.999969 
	C114.166664,55.000000 99.333336,55.000000 84.000000,55.000000 
M111.405533,41.177853 
	C117.211624,37.398155 118.451065,31.808237 117.326866,25.493576 
	C116.146362,18.862679 111.405693,15.013482 104.823143,14.954774 
	C98.239586,14.896057 93.274284,18.702908 91.759865,24.996323 
	C90.427818,30.531900 91.102119,35.744751 95.430260,39.694813 
	C99.937431,43.808273 105.284767,43.935440 111.405533,41.177853 
M57.005470,19.572359 
	C51.182159,14.073006 43.671886,13.415522 38.199997,17.926043 
	C33.095070,22.134075 31.783144,31.088383 35.395344,37.068718 
	C38.653484,42.462879 45.729836,44.550774 52.061653,41.986149 
	C59.645760,38.914299 62.052647,29.126459 57.005470,19.572359 
M75.817574,43.010864 
	C88.552559,41.904091 86.379425,41.982220 85.908676,28.255774 
	C82.996605,28.255774 80.084930,28.255774 77.173248,28.255774 
	C77.044807,28.832623 76.916359,29.409470 76.787918,29.986319 
	C78.814453,30.533134 80.840996,31.079948 83.126595,31.696667 
	C82.417305,34.802521 85.590851,39.648514 78.854935,39.996044 
	C71.731789,40.363552 67.308342,36.577995 67.098167,29.618927 
	C66.885223,22.568443 71.351814,17.889271 78.354164,18.078606 
	C80.749161,18.143360 83.129585,18.746834 86.086800,19.189520 
	C85.004814,14.329772 81.217987,15.124377 78.374756,15.044112 
	C70.877701,14.832468 64.981125,19.818327 63.967728,26.801880 
	C62.753292,35.170784 66.308151,40.383850 75.817574,43.010864 
M30.370565,43.017773 
	C31.016413,42.495281 31.662258,41.972794 32.308105,41.450302 
	C31.626972,40.960838 30.966730,40.087315 30.261059,40.048927 
	C27.329508,39.889469 24.384253,39.981918 21.078403,39.981918 
	C21.078403,32.185234 21.125910,24.913500 21.016487,17.644129 
	C21.003252,16.764914 20.142529,15.898455 19.674591,15.026085 
	C19.123690,15.819207 18.105011,16.605848 18.093920,17.406448 
	C17.977367,25.819731 18.021883,34.235245 18.021883,43.022839 
	C22.153448,43.022839 25.774832,43.022839 30.370565,43.017773 
z"/>
<path fill="#393A40" opacity="1.000000" stroke="none" 
	d="
M111.089478,41.400833 
	C105.284767,43.935440 99.937431,43.808273 95.430260,39.694813 
	C91.102119,35.744751 90.427818,30.531900 91.759865,24.996323 
	C93.274284,18.702908 98.239586,14.896057 104.823143,14.954774 
	C111.405693,15.013482 116.146362,18.862679 117.326866,25.493576 
	C118.451065,31.808237 117.211624,37.398155 111.089478,41.400833 
M105.274757,39.953365 
	C112.239960,38.656830 114.945648,34.677509 114.112167,26.955971 
	C113.477058,21.072184 109.925652,17.874891 104.215591,18.046209 
	C98.498085,18.217747 94.878532,22.276548 94.747330,28.663502 
	C94.603081,35.685207 97.685646,39.268196 105.274757,39.953365 
z"/>
<path fill="#35363E" opacity="1.000000" stroke="none" 
	d="
M57.211243,19.890215 
	C62.052647,29.126459 59.645760,38.914299 52.061653,41.986149 
	C45.729836,44.550774 38.653484,42.462879 35.395344,37.068718 
	C31.783144,31.088383 33.095070,22.134075 38.199997,17.926043 
	C43.671886,13.415522 51.182159,14.073006 57.211243,19.890215 
M42.625610,39.223686 
	C43.902622,39.471172 45.170483,39.853951 46.458344,39.941067 
	C50.512932,40.215332 53.692329,38.558372 55.277012,34.829678 
	C57.180176,30.351595 57.153717,25.750622 54.362663,21.553162 
	C52.034500,18.051847 48.077328,16.907373 44.727875,18.347582 
	C41.762775,19.622526 38.500809,22.528473 37.466557,25.455269 
	C35.696938,30.463064 36.625202,35.683857 42.625610,39.223686 
z"/>
<path fill="#353238" opacity="1.000000" stroke="none" 
	d="
M75.397560,42.979111 
	C66.308151,40.383850 62.753292,35.170784 63.967728,26.801880 
	C64.981125,19.818327 70.877701,14.832468 78.374756,15.044112 
	C81.217987,15.124377 85.004814,14.329772 86.086800,19.189520 
	C83.129585,18.746834 80.749161,18.143360 78.354164,18.078606 
	C71.351814,17.889271 66.885223,22.568443 67.098167,29.618927 
	C67.308342,36.577995 71.731789,40.363552 78.854935,39.996044 
	C85.590851,39.648514 82.417305,34.802521 83.126595,31.696667 
	C80.840996,31.079948 78.814453,30.533134 76.787918,29.986319 
	C76.916359,29.409470 77.044807,28.832623 77.173248,28.255774 
	C80.084930,28.255774 82.996605,28.255774 85.908676,28.255774 
	C86.379425,41.982220 88.552559,41.904091 75.397560,42.979111 
z"/>
<path fill="#392536" opacity="1.000000" stroke="none" 
	d="
M29.883390,43.020306 
	C25.774832,43.022839 22.153448,43.022839 18.021883,43.022839 
	C18.021883,34.235245 17.977367,25.819731 18.093920,17.406448 
	C18.105011,16.605848 19.123690,15.819207 19.674591,15.026085 
	C20.142529,15.898455 21.003252,16.764914 21.016487,17.644129 
	C21.125910,24.913500 21.078403,32.185234 21.078403,39.981918 
	C24.384253,39.981918 27.329508,39.889469 30.261059,40.048927 
	C30.966730,40.087315 31.626972,40.960838 32.308105,41.450302 
	C31.662258,41.972794 31.016413,42.495281 29.883390,43.020306 
z"/>
<path fill="#FCFDFC" opacity="1.000000" stroke="none" 
	d="
M104.868210,39.954121 
	C97.685646,39.268196 94.603081,35.685207 94.747330,28.663502 
	C94.878532,22.276548 98.498085,18.217747 104.215591,18.046209 
	C109.925652,17.874891 113.477058,21.072184 114.112167,26.955971 
	C114.945648,34.677509 112.239960,38.656830 104.868210,39.954121 
z"/>
<path fill="#F9FBFA" opacity="1.000000" stroke="none" 
	d="
M42.256340,39.075928 
	C36.625202,35.683857 35.696938,30.463064 37.466557,25.455269 
	C38.500809,22.528473 41.762775,19.622526 44.727875,18.347582 
	C48.077328,16.907373 52.034500,18.051847 54.362663,21.553162 
	C57.153717,25.750622 57.180176,30.351595 55.277012,34.829678 
	C53.692329,38.558372 50.512932,40.215332 46.458344,39.941067 
	C45.170483,39.853951 43.902622,39.471172 42.256340,39.075928 
z"/>
</svg>